<?xml version="1.0" encoding="utf-8"?>
<svg viewBox="85.278 85.278 329.444 329.444" width="329.444" height="329.444" xmlns="http://www.w3.org/2000/svg">
  <circle style="fill: rgb(118, 184, 42);" cx="250" cy="250" r="164.722"/>
  <g transform="matrix(1, 0, 0, 1, -4.617004, 6.082001)">
    <polygon class="784cd28c-b9cf-46de-a405-d8f6ae92759d" points="236.067 198.868 251.467 183.868 280.467 212.868 362.567 131.268 377.467 145.868 280.067 243.268 236.067 198.868" style="fill: rgb(255, 255, 255);"/>
    <path class="41ec773e-e17f-4bb3-8c75-1ba6fefc9b1e" d="M 354.067 197.268 L 341.567 209.768 C 348.667 233.368 347.067 251.768 322.367 276.468 L 293.567 305.268 L 189.067 200.668 L 217.967 171.768 C 248.767 141.068 274.267 143.268 303.967 161.568 L 315.467 150.068 C 278.767 124.968 244.167 123.468 206.567 160.968 L 121.767 245.868 L 248.467 372.568 L 333.267 287.668 C 364.667 256.368 367.067 229.068 354.067 197.268" style="fill: rgb(255, 255, 255);"/>
  </g>
</svg>